<?xml version="1.0" encoding="UTF-8" standalone="no"?>
<!-- Created with Inkscape (http://www.inkscape.org/) -->

<svg
   width="210mm"
   height="55.637mm"
   viewBox="0 0 210 55.637"
   version="1.1"
   id="svg1"
   inkscape:version="1.3.2 (091e20e, 2023-11-25, custom)"
   sodipodi:docname="llogo.svg"
   xml:space="preserve"
   xmlns:inkscape="http://www.inkscape.org/namespaces/inkscape"
   xmlns:sodipodi="http://sodipodi.sourceforge.net/DTD/sodipodi-0.dtd"
   xmlns="http://www.w3.org/2000/svg"
   xmlns:svg="http://www.w3.org/2000/svg"><sodipodi:namedview
     id="namedview1"
     pagecolor="#505050"
     bordercolor="#ffffff"
     borderopacity="1"
     inkscape:showpageshadow="0"
     inkscape:pageopacity="0"
     inkscape:pagecheckerboard="1"
     inkscape:deskcolor="#505050"
     inkscape:document-units="mm"
     inkscape:zoom="1.0293026"
     inkscape:cx="412.41516"
     inkscape:cy="166.61767"
     inkscape:window-width="1920"
     inkscape:window-height="1094"
     inkscape:window-x="-11"
     inkscape:window-y="-11"
     inkscape:window-maximized="1"
     inkscape:current-layer="layer1" /><defs
     id="defs1" /><g
     inkscape:label="Layer 1"
     inkscape:groupmode="layer"
     id="layer1"><path
       style="font-size:101.751px;font-family:Consolas;-inkscape-font-specification:Consolas;text-align:center;text-anchor:middle;fill:#000000;stroke-width:0.254378;stroke-linecap:round;stroke-linejoin:round;paint-order:stroke fill markers;fill-opacity:1"
       d="M 1.2451038e-4,5.2366046 C 1.9104115,3.6958646 3.7378125,0.5545846 5.6991689,4.5955974e-6 L 38.752947,27.594005 5.3658999,55.466227 C 3.9163568,53.564496 0.71312474,51.570212 0.33519448,49.725037 L 27.077417,27.693371 Z M 141.49761,54.671297 c -0.3201,-3.19581 0.97654,-9.797171 -3.2752,-4.003372 -7.775,6.283433 -21.57639,7.391548 -28.02515,-1.275458 -5.01817,-8.006002 -0.88572,-19.900951 8.43603,-22.36516 7.06147,-2.407342 14.60109,-1.479427 21.92034,-1.669042 0.26994,-4.86653 0.0378,-11.05535 -5.3751,-13.062 -7.56115,-2.4936004 -15.7204,-0.14608 -22.89459,2.57886 0.47429,-2.561 -1.00308,-6.5059304 0.84151,-8.0952404 9.84464,-2.99561 21.90759,-5.21293 30.906,1.13961 7.21004,5.8588104 4.77666,15.5892554 5.21672,23.6586464 v 23.093156 z m -0.94398,-22.705179 c -6.79531,0.451567 -14.32975,-1.432396 -20.37007,2.484155 -6.59238,4.97128 -1.20217,16.265122 6.95873,13.799483 4.99427,-1.448915 13.37601,-4.039082 13.41134,-10.044865 z M 160.72497,4.7894546 h 9.83725 c 4.92752,13.6878704 10.40924,27.1824974 14.85525,41.0382494 4.49763,-13.838537 9.92231,-27.352239 14.85525,-41.0382494 h 9.48947 C 203.23714,21.416739 196.7121,38.044018 190.18705,54.671297 h -9.93662 C 173.74194,38.044018 167.23346,21.416739 160.72497,4.7894546 Z"
       id="text1"
       aria-label="&gt;nav"
       sodipodi:nodetypes="cccccccccccccccccccccccccccccccc" /><path
       d="m 94.469733,19.835082 a 4.2120667,4.2120667 0 0 0 4.212057,-4.21206 V 7.1988817 a 2.1060336,2.1060336 0 0 0 -4.212057,0 V 15.623022 H 86.0456 c -0.03791,0 -0.06739,0.019 -0.105301,0.021 a 13.50178,13.50178 0 0 0 -25.040737,0 c -0.04423,0.002 -0.08213,-0.021 -0.126361,-0.021 H 52.349067 V 7.1988817 a 2.1060336,2.1060336 0 0 0 -4.212067,0 v 8.4241403 a 4.2120667,4.2120667 0 0 0 4.212067,4.21206 h 7.339526 l -2.133412,8.424136 h -7.312148 a 2.1060336,2.1060336 0 0 0 0,4.212066 h 6.244389 l -0.305374,1.206754 -0.04212,0.267467 a 17.627499,17.627499 0 0 0 -0.147422,2.173432 17.269474,17.269474 0 0 0 0.680247,4.77648 h -4.323685 a 4.2120667,4.2120667 0 0 0 -4.212067,4.212066 v 8.424133 a 2.1060336,2.1060336 0 0 0 4.212067,0 v -8.424133 h 6.170677 a 17.370563,17.370563 0 0 0 29.779313,0 h 6.170672 v 8.424133 a 2.1060378,2.1060378 0 0 0 4.21207,0 V 45.107483 A 4.2120667,4.2120667 0 0 0 94.469733,40.895417 H 90.146045 A 17.269474,17.269474 0 0 0 90.830509,36.1084 17.627499,17.627499 0 0 0 90.678874,33.945505 l -0.368557,-1.474221 h 6.265443 a 2.1060336,2.1060336 0 0 0 0,-4.212066 H 89.25098 L 87.125995,19.835082 Z M 73.409398,49.31955 A 13.223783,13.223783 0 0 1 60.200359,36.1084 a 13.032134,13.032134 0 0 1 0.09898,-1.531082 l 4.275248,-16.911446 a 9.3676362,9.3676362 0 0 1 17.640137,-0.0863 l 4.30473,16.997789 a 13.032134,13.032134 0 0 1 0.09898,1.526873 13.223783,13.223783 0 0 1 -13.209043,13.215359 z"
       id="path1"
       style="fill:#000000;fill-opacity:1;stroke-width:2.10603" /></g></svg>
