<?xml version="1.0" encoding="UTF-8" standalone="no"?>
<svg
   id="Layer_1"
   data-name="Layer 1"
   viewBox="0 0 4.365 4"
   version="1.1"
   xmlns="http://www.w3.org/2000/svg"
   xmlns:svg="http://www.w3.org/2000/svg">
  <defs
     id="defs1" />
  <path
     d="M 3.4538616,0.36450173 C 3.0448183,0.36128398 2.635018,0.37097173 2.2264533,0.35959745 1.9780745,0.2561747 1.7494573,0.10510419 1.4953984,0.01600306 1.2869359,-0.01199334 1.0745837,0.00599823 0.86440431,0.00257129 0.37339498,0.01481532 -0.0373708,0.48074585 0.00270529,0.96855753 0.0034885,1.6909547 0.00113479,2.4133915 0.00388931,3.1357638 0.01634868,3.6267185 0.48226643,4.0373453 0.97004069,3.9972976 1.813531,3.9965226 2.6570613,3.9988726 3.5005266,3.9961226 3.9914813,3.9836601 4.4021083,3.5177418 4.3620606,3.0299675 4.3591056,2.4133496 4.3680831,1.7963527 4.3573631,1.1799806 4.3187566,0.72793003 3.9079511,0.3563288 3.4538616,0.36450173 Z M 1.7282834,3.1955395 C 1.9160648,3.373457 1.5877392,3.6404903 1.4463552,3.4272888 1.3889648,3.3698983 1.3315743,3.3125078 1.2741839,3.2551173 1.177684,3.3377495 1.1060709,3.459058 0.98312562,3.5021873 0.76789074,3.5454758 0.69604734,3.2429698 0.87026329,3.1453605 0.91046219,3.0935455 0.99685919,3.0417305 1.008982,2.9899155 0.92466884,2.887371 0.78186769,2.814769 0.76681851,2.6725305 0.76739351,2.4623096 1.0445339,2.4440527 1.1354651,2.6027213 c 0.051815,0.031222 0.10363,0.1459985 0.1554451,0.1219925 0.1067443,-0.086674 0.185618,-0.2506283 0.3437034,-0.2304713 0.1975478,0.039942 0.1700139,0.28673 0.026765,0.3736805 -0.026638,0.051815 -0.159106,0.10363 -0.1052662,0.1554453 0.05739,0.05739 0.1147809,0.114781 0.172171,0.1721712 z m 0.09082,-1.741199 c 0.00213,0.17034 -0.1812035,0.1949391 -0.3117399,0.1816398 -0.09522,-0.022846 -0.034594,0.110154 -0.05154,0.1655819 0.030366,0.2506876 -0.3883566,0.2560149 -0.3632796,0.00423 C 1.0747215,1.7512415 1.1361774,1.6174117 1.0452349,1.6359803 0.92521017,1.6426445 0.76003719,1.6420416 0.73295686,1.4909324 0.69600839,1.3125161 0.88901364,1.2506897 1.0291771,1.2727007 1.1328535,1.3040032 1.0801577,1.1789335 1.0925441,1.118946 1.049519,0.87143246 1.4639916,0.83763843 1.4558237,1.0910609 c 0.018163,0.054211 -0.039797,0.1845444 0.035482,0.1816398 0.1230177,-0.00507 0.295196,-0.011809 0.3241054,0.1450479 z m 1.816398,1.816398 c 0.00212,0.1703398 -0.1812035,0.194939 -0.3117398,0.1816398 -0.210961,-0.00235 -0.4223982,0.00477 -0.633051,-0.00369 -0.2392079,-0.043388 -0.1457212,-0.4161108 0.083901,-0.359587 0.2385565,0.00238 0.4775935,-0.0048 0.7158418,0.00369 0.08251,0.015595 0.1465495,0.0939 0.145048,0.1779472 z m 0,-0.5449195 c 0.00212,0.17034 -0.1812035,0.194939 -0.3117398,0.1816398 -0.210961,-0.00235 -0.4223982,0.00477 -0.633051,-0.00369 -0.2392079,-0.043388 -0.1457212,-0.4161106 0.083901,-0.3595868 0.2385565,0.00238 0.4775935,-0.0048 0.7158418,0.00369 0.08251,0.015595 0.1465495,0.0939 0.145048,0.177947 z m 0,-1.2714785 c 0.00212,0.17034 -0.1812035,0.1949391 -0.3117398,0.1816398 -0.210961,-0.00235 -0.4223982,0.00477 -0.633051,-0.00369 -0.2392079,-0.043388 -0.1457212,-0.4161109 0.083901,-0.3595872 0.2385565,0.00237 0.4775935,-0.0048 0.7158418,0.00369 0.08251,0.015594 0.1465495,0.0939 0.145048,0.1779474 z"
     id="path1"
     style="stroke-width:0.18164" />
</svg>
